# This file uses centimeters as units for non-parametric coordinates.

mtllib rocher.mtl
g default
v 2.711264 -1.379812 0.455990
v 4.489466 -1.451753 0.953358
v 5.070920 -1.275952 0.800042
v 2.614115 -0.339306 0.624924
v 4.930314 -0.139056 0.957103
v 5.377956 -0.305383 0.697852
v 4.647183 0.039135 0.541851
v 4.253515 -0.018352 -0.835742
v 3.365980 -0.519533 -1.230119
v 4.284106 -0.312354 -1.078164
v 4.473788 -0.534282 -1.123320
v 3.409495 -1.801164 -1.285087
v 4.243089 -2.046420 -1.063118
v 4.431489 -1.799188 -1.082116
v 4.154578 -2.281130 -0.838243
v 4.157432 -1.804652 0.467530
v 3.602388 -2.048260 -1.201023
v 3.372111 -1.165478 -1.347666
v 4.511353 -1.173619 -1.214485
v 3.466983 -2.291420 -1.063806
v 3.260567 -1.990974 -1.224065
v 4.478487 -1.981317 -0.922972
v 2.973411 -1.890730 0.026868
v 2.671245 -1.660890 -0.150119
v 4.851413 -1.537247 0.411445
v 2.638096 -1.593894 0.202786
v 5.065363 -1.460093 0.674372
v 3.147762 -1.132482 -1.249379
v 2.479481 -0.921734 -0.145800
v 3.007204 -1.530686 0.635029
v 2.948290 -0.153873 0.880176
v 2.567255 -0.859494 0.534535
v 5.412044 -0.782793 0.712796
v 2.867185 0.042677 0.344872
v 2.463776 -0.164104 0.415829
v 5.494971 -0.144981 0.487432
v 3.379286 -0.003798 -0.964070
v 2.497685 -0.183082 0.045160
v 5.277768 -0.173522 0.235532
v 3.558320 -0.302821 -1.142741
v 3.176502 -0.281265 -1.147593
v 4.559174 -0.303712 -1.002023
v 2.994474 -0.832943 0.828651
v 4.753571 -0.785835 1.013610
v 2.891114 0.060960 0.711048
v 4.868081 0.062133 0.814821
v 3.637408 -1.184615 -1.216912
v 4.288074 -1.189215 -1.146792
v 2.980227 -1.801558 0.377258
v 4.301578 -1.709383 0.777035
v 4.600287 -1.140770 -1.025854
v 5.263561 -0.847160 0.233924
v 5.472465 -0.796108 0.489783
v 2.429704 -0.882363 0.216019
vt 0.375000 0.000000
vt 0.375000 1.000000
vt 0.537500 0.000000
vt 0.537500 1.000000
vt 0.625000 0.000000
vt 0.625000 1.000000
vt 0.375000 0.250000
vt 0.537500 0.225000
vt 0.625000 0.250000
vt 0.537500 0.309375
vt 0.537500 0.462500
vt 0.375000 0.500000
vt 0.125000 0.250000
vt 0.537500 0.521875
vt 0.625000 0.500000
vt 0.875000 0.250000
vt 0.375000 0.750000
vt 0.125000 0.000000
vt 0.537500 0.728125
vt 0.625000 0.750000
vt 0.875000 0.000000
vt 0.537500 0.787500
vt 0.537500 0.940625
vt 0.412500 0.125000
vt 0.537500 0.125000
vt 0.412500 0.275000
vt 0.537500 0.275000
vt 0.412500 0.625000
vt 0.537500 0.625000
vt 0.412500 0.975000
vt 0.537500 0.975000
vt 0.837500 0.125000
vt 0.684375 0.125000
vt 0.650000 0.125000
vt 0.350000 0.125000
vt 0.412500 0.000000
vt 0.412500 1.000000
vt 0.412500 0.225000
vt 0.378125 0.125000
vt 0.609375 0.125000
vt 0.412500 0.309375
vt 0.375000 0.275000
vt 0.350000 0.250000
vt 0.625000 0.275000
vt 0.650000 0.250000
vt 0.412500 0.462500
vt 0.375000 0.300000
vt 0.325000 0.250000
vt 0.625000 0.300000
vt 0.675000 0.250000
vt 0.412500 0.521875
vt 0.375000 0.462500
vt 0.162500 0.250000
vt 0.625000 0.462500
vt 0.837500 0.250000
vt 0.412500 0.728125
vt 0.375000 0.625000
vt 0.125000 0.125000
vt 0.625000 0.625000
vt 0.875000 0.125000
vt 0.412500 0.787500
vt 0.375000 0.787500
vt 0.162500 0.000000
vt 0.625000 0.787500
vt 0.837500 0.000000
vt 0.412500 0.940625
vt 0.375000 0.950000
vt 0.325000 0.000000
vt 0.625000 0.950000
vt 0.675000 0.000000
vt 0.375000 0.975000
vt 0.350000 0.000000
vt 0.625000 0.975000
vt 0.650000 0.000000
vt 0.162500 0.125000
vt 0.315625 0.125000
vn -0.695119 -0.320202 0.643646
vn -0.241779 -0.319343 0.916277
vn -0.191829 -0.087621 0.977509
vn -0.727302 -0.170826 0.664718
vn -0.043423 -0.273461 0.960903
vn 0.021878 -0.063188 0.997762
vn 0.089134 0.195854 0.976574
vn -0.154350 0.190722 0.969433
vn -0.708141 0.010111 0.705998
vn 0.480347 -0.326528 0.814031
vn 0.614599 -0.132240 0.777676
vn 0.619327 0.153779 0.769926
vn -0.145886 0.918317 0.367981
vn -0.896823 0.405654 0.176505
vn 0.094870 0.896224 0.433338
vn 0.105948 0.988873 -0.104432
vn -0.125053 0.987958 -0.091106
vn -0.809900 0.443043 -0.384415
vn 0.769269 0.605604 -0.203642
vn 0.722871 0.518736 -0.456476
vn 0.120183 0.978887 -0.165335
vn -0.104595 0.978036 -0.180295
vn -0.741961 0.382382 -0.550706
vn 0.752824 0.456196 -0.474492
vn 0.096517 0.287049 -0.953041
vn 0.121368 0.307756 -0.943693
vn 0.053984 0.196071 -0.979103
vn 0.311234 0.170873 -0.934845
vn 0.190347 0.021235 -0.981487
vn 0.054389 0.037421 -0.997818
vn 0.064330 0.006814 -0.997905
vn 0.211499 -0.276833 -0.937353
vn 0.180674 -0.266175 -0.946841
vn 0.060191 -0.116078 -0.991415
vn 0.380558 -0.042741 -0.923769
vn 0.448544 -0.248835 -0.858423
vn -0.212410 -0.969625 0.121281
vn -0.796900 -0.419020 -0.435170
vn 0.149963 -0.965858 0.211256
vn 0.767843 -0.636616 -0.071675
vn -0.269078 -0.937615 0.220173
vn -0.875408 -0.364943 -0.316983
vn 0.159165 -0.948153 0.275085
vn 0.766071 -0.633235 -0.110216
vn -0.230680 -0.825575 0.514988
vn -0.864180 -0.462663 0.197830
vn 0.013246 -0.807701 0.589444
vn 0.651901 -0.754789 0.072935
vn 0.907032 -0.186176 -0.377666
vn 0.885842 -0.191919 -0.422435
vn 0.919424 -0.287093 -0.268770
vn -0.822799 -0.033419 -0.567350
vn -0.903675 -0.019556 -0.427772
vn -0.986098 -0.119474 0.115489
s 1
g pCube2
usemtl initialShadingGroup
f 1/1/1 30/36/2 43/24/3 32/39/4
f 30/36/2 2/3/5 44/25/6 43/24/3
f 43/24/3 44/25/6 5/8/7 31/38/8
f 32/39/4 43/24/3 31/38/8 4/7/9
f 2/3/5 3/5/10 33/40/11 44/25/6
f 44/25/6 33/40/11 6/9/12 5/8/7
f 4/7/9 31/38/8 45/26/13 35/42/14
f 31/38/8 5/8/7 46/27/15 45/26/13
f 45/26/13 46/27/15 7/10/16 34/41/17
f 35/42/14 45/26/13 34/41/17 38/47/18
f 5/8/7 6/9/12 36/44/19 46/27/15
f 46/27/15 36/44/19 39/49/20 7/10/16
f 34/41/17 7/10/16 8/11/21 37/46/22
f 38/47/18 34/41/17 37/46/22 41/52/23
f 7/10/16 39/49/20 42/54/24 8/11/21
f 37/46/22 8/11/21 10/14/25 40/51/26
f 41/52/23 37/46/22 40/51/26 9/12/27
f 8/11/21 42/54/24 11/15/28 10/14/25
f 9/12/27 40/51/26 47/28/29 18/57/30
f 40/51/26 10/14/25 48/29/31 47/28/29
f 47/28/29 48/29/31 13/19/32 17/56/33
f 18/57/30 47/28/29 17/56/33 12/17/34
f 10/14/25 11/15/28 19/59/35 48/29/31
f 48/29/31 19/59/35 14/20/36 13/19/32
f 12/17/34 17/56/33 20/61/37 21/62/38
f 17/56/33 13/19/32 15/22/39 20/61/37
f 13/19/32 14/20/36 22/64/40 15/22/39
f 21/62/38 20/61/37 23/66/41 24/67/42
f 20/61/37 15/22/39 16/23/43 23/66/41
f 15/22/39 22/64/40 25/69/44 16/23/43
f 24/67/42 23/66/41 49/30/45 26/71/46
f 23/66/41 16/23/43 50/31/47 49/30/45
f 49/30/45 50/31/47 2/4/5 30/37/2
f 26/71/46 49/30/45 30/37/2 1/2/1
f 16/23/43 25/69/44 27/73/48 50/31/47
f 50/31/47 27/73/48 3/6/10 2/4/5
f 22/65/40 14/21/36 19/60/35 51/32/49
f 51/32/49 19/60/35 11/16/28 42/55/24
f 25/70/44 22/65/40 51/32/49 52/33/50
f 52/33/50 51/32/49 42/55/24 39/50/20
f 3/5/10 27/74/48 53/34/51 33/40/11
f 27/74/48 25/70/44 52/33/50 53/34/51
f 53/34/51 52/33/50 39/50/20 36/45/19
f 33/40/11 53/34/51 36/45/19 6/9/12
f 12/18/34 21/63/38 28/75/52 18/58/30
f 18/58/30 28/75/52 41/53/23 9/13/27
f 21/63/38 24/68/42 29/76/53 28/75/52
f 28/75/52 29/76/53 38/48/18 41/53/23
f 24/68/42 26/72/46 54/35/54 29/76/53
f 26/72/46 1/1/1 32/39/4 54/35/54
f 54/35/54 32/39/4 4/7/9 35/43/14
f 29/76/53 54/35/54 35/43/14 38/48/18
