# This file uses centimeters as units for non-parametric coordinates.

mtllib Pillier.mtl
g default
v -0.647256 -0.597703 -0.184355
v -0.764401 -0.597703 -0.467169
v -1.025818 -0.597703 -0.728586
v -1.308632 -0.597703 -0.845731
v -1.678331 -0.597703 -0.845732
v -1.961145 -0.597703 -0.728586
v -2.222561 -0.597703 -0.467170
v -2.339707 -0.597703 -0.184356
v -2.339707 -0.597703 0.185343
v -2.222562 -0.597703 0.468157
v -1.961145 -0.597703 0.729574
v -1.678331 -0.597703 0.846720
v -1.308632 -0.597703 0.846720
v -1.025818 -0.597703 0.729574
v -0.764401 -0.597703 0.468157
v -0.647256 -0.597703 0.185343
v -0.784177 -0.597703 -0.682671
v -0.810316 -0.597703 -0.708810
v -1.474998 -0.597703 -0.984130
v -1.511964 -0.597703 -0.984130
v -2.176646 -0.597703 -0.708810
v -2.202785 -0.597703 -0.682671
v -2.478106 -0.597703 -0.017989
v -2.478106 -0.597703 0.018977
v -2.202785 -0.597703 0.683659
v -2.176647 -0.597703 0.709798
v -1.511965 -0.597703 0.985118
v -1.474999 -0.597703 0.985118
v -0.810317 -0.597703 0.709798
v -0.784178 -0.597703 0.683659
v -0.508857 -0.597703 0.018977
v -0.508857 -0.597703 -0.017989
v -0.649191 -9.547192 -0.239788
v -0.766336 -9.547192 -0.522602
v -1.027753 -9.547192 -0.784019
v -1.310567 -9.547192 -0.901164
v -1.680266 -9.547192 -0.901165
v -1.963080 -9.547192 -0.784019
v -2.224497 -9.547192 -0.522603
v -2.341642 -9.547192 -0.239789
v -2.341642 -9.547192 0.129910
v -2.224497 -9.547192 0.412724
v -1.963080 -9.547192 0.674141
v -1.680266 -9.547192 0.791287
v -1.310567 -9.547192 0.791287
v -1.027753 -9.547192 0.674141
v -0.766337 -9.547192 0.412725
v -0.649191 -9.547192 0.129911
v -0.786113 -9.547192 -0.738104
v -0.812252 -9.547192 -0.764243
v -1.476933 -9.547192 -1.039563
v -1.513899 -9.547192 -1.039563
v -2.178581 -9.547192 -0.764243
v -2.204720 -9.547192 -0.738104
v -2.480041 -9.547192 -0.073422
v -2.480041 -9.547192 -0.036456
v -2.204721 -9.547192 0.628226
v -2.178582 -9.547192 0.654365
v -1.513900 -9.547192 0.929685
v -1.476934 -9.547192 0.929685
v -0.812252 -9.547192 0.654365
v -0.786113 -9.547192 0.628226
v -0.510793 -9.547192 -0.036456
v -0.510793 -9.547192 -0.073422
v 0.000273 -0.597703 -0.835742
v 0.000270 -0.597703 -1.274006
v -0.862392 -0.597703 -1.493173
v -1.225122 -0.597703 -1.493162
v -2.329733 -0.597703 -1.493127
v -2.768008 -0.597703 -1.493110
v -2.987134 -0.597703 -0.630457
v -2.987149 -0.597703 -0.267726
v -2.987192 -0.597703 0.836888
v -2.987206 -0.597703 1.275140
v -2.124485 -0.597703 1.494287
v -1.761753 -0.597703 1.494282
v -0.657144 -0.597703 1.494269
v -0.218876 -0.597703 1.494262
v 0.000274 -0.597703 0.631600
v 0.000274 -0.597703 0.268869
v 0.000273 -0.597703 -0.630473
v -0.657123 -0.597703 -1.493179
v -2.124465 -0.597703 -1.493133
v -2.987126 -0.597703 -0.835723
v -2.987184 -0.597703 0.631616
v -2.329755 -0.597703 1.494289
v -0.862412 -0.597703 1.494272
v 0.000274 -0.597703 0.836868
v -0.218868 -0.597703 -1.493190
v -1.761734 -0.597703 -1.493145
v -2.987107 -0.597703 -1.274000
v -2.987169 -0.597703 0.268885
v -2.768016 -0.597703 1.494291
v -1.225142 -0.597703 1.494276
v 0.000271 -0.597703 1.275134
v 0.000273 -0.597703 -0.267743
v -0.000000 0.000000 -0.836305
v -0.000003 0.000000 -1.274569
v -0.862666 0.000000 -1.493737
v -1.225396 0.000000 -1.493725
v -2.330007 0.000000 -1.493690
v -2.768282 0.000000 -1.493674
v -2.987408 0.000000 -0.631020
v -2.987422 0.000000 -0.268289
v -2.987465 0.000000 0.836325
v -2.987480 0.000000 1.274577
v -2.124759 0.000000 1.493723
v -1.762027 0.000000 1.493719
v -0.657418 0.000000 1.493706
v -0.219150 0.000000 1.493698
v 0.000000 0.000000 0.631037
v 0.000000 0.000000 0.268306
v -0.000000 0.000000 -0.631036
v -0.657397 0.000000 -1.493743
v -2.124739 0.000000 -1.493697
v -2.987400 0.000000 -0.836286
v -2.987457 0.000000 0.631053
v -2.330029 0.000000 1.493726
v -0.862685 0.000000 1.493709
v 0.000000 0.000000 0.836305
v -0.219142 0.000000 -1.493754
v -1.762007 0.000000 -1.493708
v -2.987380 0.000000 -1.274564
v -2.987443 0.000000 0.268322
v -2.768290 0.000000 1.493728
v -1.225415 0.000000 1.493713
v -0.000003 0.000000 1.274571
v -0.000000 0.000000 -0.268306
vt 0.381249 0.688440
vt 0.412499 0.688440
vt 0.443749 0.688440
vt 0.474999 0.688440
vt 0.506249 0.688440
vt 0.537499 0.688440
vt 0.568749 0.688440
vt 0.599999 0.688440
vt 0.400001 0.688440
vt 0.431251 0.688440
vt 0.462501 0.688440
vt 0.493751 0.688440
vt 0.525001 0.688440
vt 0.556251 0.688440
vt 0.587501 0.688440
vt 0.618751 0.688440
vt 0.391562 0.688440
vt 0.422812 0.688440
vt 0.454062 0.688440
vt 0.485312 0.688440
vt 0.516562 0.688440
vt 0.547812 0.688440
vt 0.579062 0.688440
vt 0.610312 0.688440
vt 0.389688 0.688440
vt 0.420938 0.688440
vt 0.452188 0.688440
vt 0.483438 0.688440
vt 0.514688 0.688440
vt 0.545938 0.688440
vt 0.577187 0.688440
vt 0.608438 0.688440
vt 0.381249 0.688440
vt 0.389688 0.688440
vt 0.391562 0.688440
vt 0.400001 0.688440
vt 0.412499 0.688440
vt 0.420938 0.688440
vt 0.422812 0.688440
vt 0.431251 0.688440
vt 0.443749 0.688440
vt 0.452188 0.688440
vt 0.454062 0.688440
vt 0.462501 0.688440
vt 0.474999 0.688440
vt 0.483438 0.688440
vt 0.485312 0.688440
vt 0.493751 0.688440
vt 0.506249 0.688440
vt 0.514688 0.688440
vt 0.516562 0.688440
vt 0.525001 0.688440
vt 0.537499 0.688440
vt 0.545938 0.688440
vt 0.547812 0.688440
vt 0.556251 0.688440
vt 0.568749 0.688440
vt 0.577187 0.688440
vt 0.579062 0.688440
vt 0.587501 0.688440
vt 0.599999 0.688440
vt 0.608438 0.688440
vt 0.610312 0.688440
vt 0.618751 0.688440
vt 0.000000 0.000000
vt 1.000000 0.000000
vt 1.000000 1.000000
vt 0.000000 1.000000
vt 0.000000 0.000000
vt 1.000000 0.000000
vt 1.000000 1.000000
vt 0.000000 1.000000
vt 0.000000 0.000000
vt 1.000000 0.000000
vt 1.000000 1.000000
vt 0.000000 1.000000
vt 0.000000 0.000000
vt 1.000000 0.000000
vt 1.000000 1.000000
vt 0.000000 1.000000
vt 0.000000 0.000000
vt 1.000000 0.000000
vt 1.000000 1.000000
vt 0.000000 1.000000
vt 0.000000 0.000000
vt 1.000000 0.000000
vt 1.000000 1.000000
vt 0.000000 1.000000
vt 0.000000 0.000000
vt 1.000000 0.000000
vt 1.000000 1.000000
vt 0.000000 1.000000
vt 0.000000 0.000000
vt 1.000000 0.000000
vt 1.000000 1.000000
vt 0.000000 1.000000
vt 0.000000 0.000000
vt 1.000000 0.000000
vt 1.000000 1.000000
vt 0.000000 1.000000
vt 0.000000 0.000000
vt 1.000000 0.000000
vt 1.000000 1.000000
vt 0.000000 1.000000
vt 0.000000 0.000000
vt 1.000000 0.000000
vt 1.000000 1.000000
vt 0.000000 1.000000
vt 0.000000 0.000000
vt 1.000000 0.000000
vt 1.000000 1.000000
vt 0.000000 1.000000
vt 0.000000 0.000000
vt 1.000000 0.000000
vt 1.000000 1.000000
vt 0.000000 1.000000
vt 0.000000 0.000000
vt 1.000000 0.000000
vt 1.000000 1.000000
vt 0.000000 1.000000
vt 0.000000 0.000000
vt 1.000000 0.000000
vt 1.000000 1.000000
vt 0.000000 1.000000
vt 0.000000 0.000000
vt 1.000000 0.000000
vt 1.000000 1.000000
vt 0.000000 1.000000
vt 0.000000 0.000000
vt 1.000000 0.000000
vt 1.000000 1.000000
vt 0.000000 1.000000
vt 0.000000 0.000000
vt 1.000000 0.000000
vt 1.000000 1.000000
vt 0.000000 1.000000
vt 0.000000 0.000000
vt 1.000000 0.000000
vt 1.000000 1.000000
vt 0.000000 1.000000
vt 0.000000 0.000000
vt 1.000000 0.000000
vt 1.000000 1.000000
vt 0.000000 1.000000
vt 0.000000 0.000000
vt 1.000000 0.000000
vt 1.000000 1.000000
vt 0.000000 1.000000
vt 0.000000 0.000000
vt 1.000000 0.000000
vt 1.000000 1.000000
vt 0.000000 1.000000
vt 0.000000 0.000000
vt 1.000000 0.000000
vt 1.000000 1.000000
vt 0.000000 1.000000
vt 0.000000 0.000000
vt 1.000000 0.000000
vt 1.000000 1.000000
vt 0.000000 1.000000
vt 0.000000 0.000000
vt 1.000000 0.000000
vt 1.000000 1.000000
vt 0.000000 1.000000
vt 0.000000 0.000000
vt 1.000000 0.000000
vt 1.000000 1.000000
vt 0.000000 1.000000
vt 0.000000 0.000000
vt 1.000000 0.000000
vt 1.000000 1.000000
vt 0.000000 1.000000
vt 0.000000 0.000000
vt 1.000000 0.000000
vt 1.000000 1.000000
vt 0.000000 1.000000
vt 0.000000 0.000000
vt 1.000000 0.000000
vt 1.000000 1.000000
vt 0.000000 1.000000
vt 0.000000 0.000000
vt 1.000000 0.000000
vt 1.000000 1.000000
vt 0.000000 1.000000
vt 0.000000 0.000000
vt 1.000000 0.000000
vt 1.000000 1.000000
vt 0.000000 1.000000
vt 0.000000 0.000000
vt 1.000000 0.000000
vt 1.000000 1.000000
vt 0.000000 1.000000
vt 0.000000 0.000000
vt 1.000000 0.000000
vt 1.000000 1.000000
vt 0.000000 1.000000
vt 0.000000 0.000000
vt 1.000000 0.000000
vt 1.000000 1.000000
vt 0.000000 1.000000
vt 0.000000 0.000000
vt 1.000000 0.000000
vt 1.000000 1.000000
vt 0.000000 1.000000
vt 0.000000 0.000000
vt 1.000000 0.000000
vt 1.000000 1.000000
vt 0.000000 1.000000
vt 0.000000 0.000000
vt 1.000000 0.000000
vt 1.000000 1.000000
vt 0.000000 1.000000
vt 0.000000 0.000000
vt 1.000000 0.000000
vt 1.000000 1.000000
vt 0.000000 1.000000
vt 0.000000 0.000000
vt 1.000000 0.000000
vt 1.000000 1.000000
vt 0.000000 1.000000
vt 0.000000 0.000000
vt 1.000000 0.000000
vt 1.000000 1.000000
vt 0.000000 1.000000
vt 0.000000 0.000000
vt 1.000000 0.000000
vt 1.000000 1.000000
vt 0.000000 1.000000
vt 0.000000 0.000000
vt 1.000000 0.000000
vt 1.000000 1.000000
vt 0.000000 1.000000
vt 0.000000 0.000000
vt 1.000000 0.000000
vt 1.000000 1.000000
vt 0.000000 1.000000
vt 0.000000 0.000000
vt 1.000000 0.000000
vt 1.000000 1.000000
vt 0.000000 1.000000
vt 0.000000 0.000000
vt 1.000000 0.000000
vt 1.000000 1.000000
vt 0.000000 1.000000
vt 0.000000 0.000000
vt 1.000000 0.000000
vt 1.000000 1.000000
vt 0.000000 1.000000
vt 0.000000 0.000000
vt 1.000000 0.000000
vt 1.000000 1.000000
vt 0.000000 1.000000
vt 0.000000 0.000000
vt 1.000000 0.000000
vt 1.000000 1.000000
vt 0.000000 1.000000
vt 0.000000 0.000000
vt 1.000000 0.000000
vt 1.000000 1.000000
vt 0.000000 1.000000
vt 0.000000 0.000000
vt 1.000000 0.000000
vt 1.000000 1.000000
vt 0.000000 1.000000
vt 0.000000 0.000000
vt 1.000000 0.000000
vt 1.000000 1.000000
vt 0.000000 1.000000
vt 0.000000 0.000000
vt 1.000000 0.000000
vt 1.000000 1.000000
vt 0.000000 1.000000
vt 0.000000 0.000000
vt 1.000000 0.000000
vt 1.000000 1.000000
vt 0.000000 1.000000
vt 0.000000 0.000000
vt 1.000000 0.000000
vt 1.000000 1.000000
vt 0.000000 1.000000
vt 0.000000 0.000000
vt 1.000000 0.000000
vt 1.000000 1.000000
vt 0.000000 1.000000
vt 0.000000 0.000000
vt 1.000000 0.000000
vt 1.000000 1.000000
vt 0.000000 1.000000
vt 0.000000 0.000000
vt 1.000000 0.000000
vt 1.000000 1.000000
vt 0.000000 1.000000
vt 0.000000 0.000000
vt 1.000000 0.000000
vt 1.000000 1.000000
vt 0.000000 1.000000
vt 0.000000 0.000000
vt 1.000000 0.000000
vt 1.000000 1.000000
vt 0.000000 1.000000
vt 0.000000 0.000000
vt 1.000000 0.000000
vt 1.000000 1.000000
vt 0.000000 1.000000
vt 0.000000 0.000000
vt 1.000000 0.000000
vt 1.000000 1.000000
vt 0.000000 1.000000
vt 0.000000 0.000000
vt 1.000000 0.000000
vt 1.000000 1.000000
vt 0.000000 1.000000
vt 0.000000 0.000000
vt 1.000000 0.000000
vt 1.000000 1.000000
vt 0.000000 1.000000
vt 0.000000 0.000000
vt 1.000000 0.000000
vt 1.000000 1.000000
vt 0.000000 1.000000
vn 0.995816 0.000351 -0.091384
vn 0.964112 0.001436 -0.265491
vn 0.964410 0.001429 -0.264407
vn 0.995816 0.000351 -0.091384
vn 0.264794 0.005916 -0.964287
vn 0.091383 0.006148 -0.995797
vn 0.091383 0.006148 -0.995797
vn 0.265097 0.005915 -0.964204
vn 0.639522 0.004623 -0.768759
vn 0.494209 0.005278 -0.869327
vn 0.494755 0.005276 -0.869017
vn 0.639522 0.004623 -0.768759
vn -0.494238 0.005491 -0.869309
vn -0.639521 0.004900 -0.768758
vn -0.639521 0.004900 -0.768758
vn -0.494724 0.005490 -0.869033
vn -0.091383 0.006188 -0.995797
vn -0.264830 0.006030 -0.964276
vn -0.265058 0.006030 -0.964214
vn -0.091383 0.006188 -0.995797
vn -0.964114 0.001853 -0.265482
vn -0.995815 0.000781 -0.091385
vn -0.995815 0.000781 -0.091385
vn -0.964407 0.001846 -0.264417
vn -0.768760 0.004127 -0.639524
vn -0.868941 0.003253 -0.494905
vn -0.869417 0.003248 -0.494069
vn -0.768760 0.004127 -0.639524
vn -0.869428 -0.002872 0.494051
vn -0.768761 -0.003795 0.639524
vn -0.768761 -0.003795 0.639524
vn -0.868932 -0.002878 0.494923
vn -0.995816 -0.000351 0.091385
vn -0.964410 -0.001429 0.264407
vn -0.964112 -0.001436 0.265491
vn -0.995816 -0.000351 0.091385
vn -0.265096 -0.005915 0.964204
vn -0.091383 -0.006148 0.995797
vn -0.091383 -0.006148 0.995797
vn -0.264793 -0.005916 0.964287
vn -0.639523 -0.004623 0.768758
vn -0.494755 -0.005276 0.869017
vn -0.494209 -0.005278 0.869327
vn -0.639523 -0.004623 0.768758
vn 0.494724 -0.005490 0.869033
vn 0.639522 -0.004900 0.768757
vn 0.639522 -0.004900 0.768757
vn 0.494238 -0.005491 0.869309
vn 0.091383 -0.006188 0.995797
vn 0.265058 -0.006030 0.964213
vn 0.264831 -0.006030 0.964276
vn 0.091383 -0.006188 0.995797
vn 0.964407 -0.001846 0.264416
vn 0.995815 -0.000781 0.091385
vn 0.995815 -0.000781 0.091385
vn 0.964114 -0.001853 0.265481
vn 0.768760 -0.004127 0.639524
vn 0.869417 -0.003248 0.494069
vn 0.868941 -0.003253 0.494904
vn 0.768760 -0.004127 0.639524
vn 0.868932 0.002878 -0.494923
vn 0.768761 0.003795 -0.639525
vn 0.768761 0.003795 -0.639525
vn 0.869428 0.002872 -0.494051
vn 0.707101 0.004227 -0.707100
vn 0.707101 0.004227 -0.707100
vn 0.707101 0.004227 -0.707100
vn 0.707101 0.004227 -0.707100
vn 0.000006 0.006194 -0.999981
vn 0.000006 0.006194 -0.999981
vn 0.000006 0.006194 -0.999981
vn 0.000006 0.006194 -0.999981
vn -0.707099 0.004533 -0.707100
vn -0.707099 0.004533 -0.707100
vn -0.707099 0.004533 -0.707100
vn -0.707099 0.004533 -0.707100
vn -1.000000 0.000216 0.000000
vn -1.000000 0.000216 0.000000
vn -1.000000 0.000216 0.000000
vn -1.000000 0.000216 0.000000
vn -0.707102 -0.004227 0.707099
vn -0.707102 -0.004227 0.707099
vn -0.707102 -0.004227 0.707099
vn -0.707102 -0.004227 0.707099
vn 0.000000 -0.006194 0.999981
vn 0.000000 -0.006194 0.999981
vn 0.000000 -0.006194 0.999981
vn 0.000000 -0.006194 0.999981
vn 0.707098 -0.004533 0.707101
vn 0.707098 -0.004533 0.707101
vn 0.707098 -0.004533 0.707101
vn 0.707098 -0.004533 0.707101
vn 1.000000 -0.000216 0.000000
vn 1.000000 -0.000216 0.000000
vn 1.000000 -0.000216 0.000000
vn 1.000000 -0.000216 0.000000
vn 0.000000 -1.000000 0.000000
vn 0.000000 -1.000000 -0.000000
vn 0.000000 -1.000000 -0.000000
vn 0.000000 -1.000000 0.000000
vn 0.000000 -1.000000 0.000000
vn 0.000000 -1.000000 -0.000000
vn 0.000000 -1.000000 -0.000000
vn 0.000000 -1.000000 0.000000
vn 0.000000 -1.000000 0.000000
vn 0.000000 -1.000000 0.000000
vn 0.000000 -1.000000 0.000000
vn 0.000000 -1.000000 0.000000
vn 0.000000 -1.000000 0.000000
vn 0.000000 -1.000000 0.000000
vn 0.000000 -1.000000 0.000000
vn 0.000000 -1.000000 0.000000
vn 0.000000 -1.000000 0.000000
vn 0.000000 -1.000000 0.000000
vn 0.000000 -1.000000 0.000000
vn 0.000000 -1.000000 0.000000
vn 0.000000 -1.000000 -0.000000
vn 0.000000 -1.000000 -0.000000
vn 0.000000 -1.000000 -0.000000
vn 0.000000 -1.000000 -0.000000
vn 0.000000 -1.000000 -0.000000
vn 0.000000 -1.000000 -0.000000
vn 0.000000 -1.000000 -0.000000
vn 0.000000 -1.000000 -0.000000
vn 0.000000 -1.000000 0.000000
vn 0.000000 -1.000000 0.000000
vn 0.000000 -1.000000 0.000000
vn 0.000000 -1.000000 0.000000
vn 0.000000 -1.000000 0.000000
vn 0.000000 -1.000000 0.000000
vn 0.000000 -1.000000 0.000000
vn 0.000000 -1.000000 0.000000
vn 0.000000 -1.000000 -0.000000
vn 0.000000 -1.000000 -0.000000
vn 0.000000 -1.000000 0.000000
vn 0.000000 -1.000000 0.000000
vn 0.000000 -1.000000 0.000000
vn 0.000000 -1.000000 0.000000
vn 0.000000 -1.000000 -0.000000
vn 0.000000 -1.000000 -0.000000
vn 0.000000 -1.000000 0.000000
vn 0.000000 -1.000000 0.000000
vn 0.000000 -1.000000 0.000000
vn 0.000000 -1.000000 0.000000
vn 0.000000 -1.000000 -0.000000
vn 0.000000 -1.000000 -0.000000
vn 0.000000 -1.000000 -0.000000
vn 0.000000 -1.000000 -0.000000
vn 0.000000 -1.000000 0.000000
vn 0.000000 -1.000000 0.000000
vn 0.000000 -1.000000 0.000000
vn 0.000000 -1.000000 0.000000
vn 0.000000 -1.000000 0.000000
vn 0.000000 -1.000000 0.000000
vn 0.000000 -1.000000 -0.000000
vn 0.000000 -1.000000 0.000000
vn 0.000000 -1.000000 -0.000000
vn 0.000000 -1.000000 -0.000000
vn 0.000000 -1.000000 0.000000
vn 0.000000 -1.000000 0.000000
vn 1.000000 0.000457 -0.000007
vn 1.000000 0.000457 -0.000007
vn 1.000000 0.000457 -0.000007
vn 1.000000 0.000457 -0.000007
vn -0.000032 -0.000943 -1.000000
vn -0.000032 -0.000943 -1.000000
vn -0.000032 -0.000943 -1.000000
vn -0.000032 -0.000943 -1.000000
vn -0.000038 -0.000943 -1.000000
vn -0.000038 -0.000943 -1.000000
vn -0.000038 -0.000943 -1.000000
vn -0.000038 -0.000943 -1.000000
vn -1.000000 -0.000458 -0.000039
vn -1.000000 -0.000458 -0.000039
vn -1.000000 -0.000458 -0.000039
vn -1.000000 -0.000458 -0.000039
vn -1.000000 -0.000458 -0.000033
vn -1.000000 -0.000458 -0.000033
vn -1.000000 -0.000458 -0.000033
vn -1.000000 -0.000458 -0.000033
vn 0.000011 0.000942 1.000000
vn 0.000011 0.000942 1.000000
vn 0.000011 0.000942 1.000000
vn 0.000011 0.000942 1.000000
vn 0.000018 0.000942 1.000000
vn 0.000018 0.000942 1.000000
vn 0.000018 0.000942 1.000000
vn 0.000018 0.000942 1.000000
vn 1.000000 0.000458 0.000000
vn 1.000000 0.000458 0.000000
vn 1.000000 0.000458 0.000000
vn 1.000000 0.000458 0.000000
vn 1.000000 0.000458 -0.000001
vn 1.000000 0.000458 -0.000001
vn 1.000000 0.000458 -0.000001
vn 1.000000 0.000458 -0.000001
vn -0.000032 -0.000943 -1.000000
vn -0.000032 -0.000943 -1.000000
vn -0.000032 -0.000943 -1.000000
vn -0.000032 -0.000943 -1.000000
vn -0.000032 -0.000943 -1.000000
vn -0.000032 -0.000943 -1.000000
vn -0.000032 -0.000943 -1.000000
vn -0.000032 -0.000943 -1.000000
vn -1.000000 -0.000458 -0.000038
vn -1.000000 -0.000458 -0.000038
vn -1.000000 -0.000458 -0.000038
vn -1.000000 -0.000458 -0.000038
vn -1.000000 -0.000457 -0.000039
vn -1.000000 -0.000457 -0.000039
vn -1.000000 -0.000457 -0.000039
vn -1.000000 -0.000457 -0.000039
vn 0.000013 0.000942 1.000000
vn 0.000013 0.000942 1.000000
vn 0.000013 0.000942 1.000000
vn 0.000013 0.000942 1.000000
vn 0.000012 0.000942 1.000000
vn 0.000012 0.000942 1.000000
vn 0.000012 0.000942 1.000000
vn 0.000012 0.000942 1.000000
vn 1.000000 0.000458 0.000000
vn 1.000000 0.000458 0.000000
vn 1.000000 0.000458 0.000000
vn 1.000000 0.000458 0.000000
vn -0.000025 -0.000942 -1.000000
vn -0.000025 -0.000942 -1.000000
vn -0.000025 -0.000942 -1.000000
vn -0.000025 -0.000942 -1.000000
vn -0.000032 -0.000943 -1.000000
vn -0.000032 -0.000943 -1.000000
vn -0.000032 -0.000943 -1.000000
vn -0.000032 -0.000943 -1.000000
vn -1.000000 -0.000458 -0.000046
vn -1.000000 -0.000458 -0.000046
vn -1.000000 -0.000458 -0.000046
vn -1.000000 -0.000458 -0.000046
vn -1.000000 -0.000458 -0.000040
vn -1.000000 -0.000458 -0.000040
vn -1.000000 -0.000458 -0.000040
vn -1.000000 -0.000458 -0.000040
vn 0.000005 0.000942 1.000000
vn 0.000005 0.000942 1.000000
vn 0.000005 0.000942 1.000000
vn 0.000005 0.000942 1.000000
vn 0.000012 0.000943 1.000000
vn 0.000012 0.000943 1.000000
vn 0.000012 0.000943 1.000000
vn 0.000012 0.000943 1.000000
vn 1.000000 0.000458 0.000006
vn 1.000000 0.000458 0.000006
vn 1.000000 0.000458 0.000006
vn 1.000000 0.000458 0.000006
vn 1.000000 0.000458 0.000000
vn 1.000000 0.000458 0.000000
vn 1.000000 0.000458 0.000000
vn 1.000000 0.000458 0.000000
vn 0.707181 -0.000342 -0.707032
vn 0.707181 -0.000342 -0.707032
vn 0.707181 -0.000342 -0.707032
vn 0.707181 -0.000342 -0.707032
vn -0.000031 -0.000943 -1.000000
vn -0.000031 -0.000943 -1.000000
vn -0.000031 -0.000943 -1.000000
vn -0.000031 -0.000943 -1.000000
vn -0.707126 -0.000990 -0.707087
vn -0.707126 -0.000990 -0.707087
vn -0.707126 -0.000990 -0.707087
vn -0.707126 -0.000990 -0.707087
vn -1.000000 -0.000458 -0.000038
vn -1.000000 -0.000458 -0.000038
vn -1.000000 -0.000458 -0.000038
vn -1.000000 -0.000458 -0.000038
vn -0.707045 0.000342 0.707169
vn -0.707045 0.000342 0.707169
vn -0.707045 0.000342 0.707169
vn -0.707045 0.000342 0.707169
vn 0.000012 0.000943 1.000000
vn 0.000012 0.000943 1.000000
vn 0.000012 0.000943 1.000000
vn 0.000012 0.000943 1.000000
vn 0.707076 0.000990 0.707137
vn 0.707076 0.000990 0.707137
vn 0.707076 0.000990 0.707137
vn 0.707076 0.000990 0.707137
vn 1.000000 0.000458 -0.000000
vn 1.000000 0.000458 -0.000000
vn 1.000000 0.000458 -0.000000
vn 1.000000 0.000458 -0.000000
s 1
g pCylinder1
usemtl initialShadingGroup
f 17/25/1 2/1/2 34/33/3 49/34/4
s 2
f 3/9/5 18/17/6 50/35/7 35/36/8
f 19/26/9 4/2/10 36/37/11 51/38/12
s 3
f 5/10/13 20/18/14 52/39/15 37/40/16
f 21/27/17 6/3/18 38/41/19 53/42/20
s 4
f 7/11/21 22/19/22 54/43/23 39/44/24
f 23/28/25 8/4/26 40/45/27 55/46/28
s 5
f 9/12/29 24/20/30 56/47/31 41/48/32
f 25/29/33 10/5/34 42/49/35 57/50/36
s 6
f 11/13/37 26/21/38 58/51/39 43/52/40
f 27/30/41 12/6/42 44/53/43 59/54/44
s 7
f 13/14/45 28/22/46 60/55/47 45/56/48
f 29/31/49 14/7/50 46/57/51 61/58/52
s 8
f 15/15/53 30/23/54 62/59/55 47/60/56
f 31/32/57 16/8/58 48/61/59 63/62/60
s 1
f 1/16/61 32/24/62 64/63/63 33/64/64
f 2/1/2 1/16/61 33/64/64 34/33/3
s 2
f 4/2/10 3/9/5 35/36/8 36/37/11
s 3
f 6/3/18 5/10/13 37/40/16 38/41/19
s 4
f 8/4/26 7/11/21 39/44/24 40/45/27
s 5
f 10/5/34 9/12/29 41/48/32 42/49/35
s 6
f 12/6/42 11/13/37 43/52/40 44/53/43
s 7
f 14/7/50 13/14/45 45/56/48 46/57/51
s 8
f 16/8/58 15/15/53 47/60/56 48/61/59
s off
f 17/25/65 49/34/66 50/35/67 18/17/68
f 19/26/69 51/38/70 52/39/71 20/18/72
f 21/27/73 53/42/74 54/43/75 22/19/76
f 23/28/77 55/46/78 56/47/79 24/20/80
f 25/29/81 57/50/82 58/51/83 26/21/84
f 27/30/85 59/54/86 60/55/87 28/22/88
f 29/31/89 61/58/90 62/59/91 30/23/92
f 31/32/93 63/62/94 64/63/95 32/24/96
s 9
f 2/65/97 17/66/98 66/67/99 65/68/100
f 4/69/101 19/70/102 68/71/103 67/72/104
f 6/73/105 21/74/106 70/75/107 69/76/108
f 8/77/109 23/78/110 72/79/111 71/80/112
f 10/81/113 25/82/114 74/83/115 73/84/116
f 12/85/117 27/86/118 76/87/119 75/88/120
f 14/89/121 29/90/122 78/91/123 77/92/124
f 16/93/125 31/94/126 80/95/127 79/96/128
f 1/97/129 2/98/97 65/99/100 81/100/130
f 3/101/131 4/102/101 67/103/104 82/104/132
f 5/105/133 6/106/105 69/107/108 83/108/134
f 7/109/135 8/110/109 71/111/112 84/112/136
f 9/113/137 10/114/113 73/115/116 85/116/138
f 11/117/139 12/118/117 75/119/120 86/120/140
f 13/121/141 14/122/121 77/123/124 87/124/142
f 15/125/143 16/126/125 79/127/128 88/128/144
f 18/129/145 3/130/131 82/131/132 89/132/146
f 20/133/147 5/134/133 83/135/134 90/136/148
f 22/137/149 7/138/135 84/139/136 91/140/150
f 24/141/151 9/142/137 85/143/138 92/144/152
f 26/145/153 11/146/139 86/147/140 93/148/154
f 28/149/155 13/150/141 87/151/142 94/152/156
f 30/153/157 15/154/143 88/155/144 95/156/158
f 32/157/159 1/158/129 81/159/130 96/160/160
f 17/161/98 18/162/145 89/163/146 66/164/99
f 19/165/102 20/166/147 90/167/148 68/168/103
f 21/169/106 22/170/149 91/171/150 70/172/107
f 23/173/110 24/174/151 92/175/152 72/176/111
f 25/177/114 26/178/153 93/179/154 74/180/115
f 27/181/118 28/182/155 94/183/156 76/184/119
f 29/185/122 30/186/157 95/187/158 78/188/123
f 31/189/126 32/190/159 96/191/160 80/192/127
s off
f 65/193/161 66/194/162 98/195/163 97/196/164
f 67/197/165 68/198/166 100/199/167 99/200/168
f 69/201/169 70/202/170 102/203/171 101/204/172
f 71/205/173 72/206/174 104/207/175 103/208/176
f 73/209/177 74/210/178 106/211/179 105/212/180
f 75/213/181 76/214/182 108/215/183 107/216/184
f 77/217/185 78/218/186 110/219/187 109/220/188
f 79/221/189 80/222/190 112/223/191 111/224/192
f 81/225/193 65/226/194 97/227/195 113/228/196
f 82/229/197 67/230/198 99/231/199 114/232/200
f 83/233/201 69/234/202 101/235/203 115/236/204
f 84/237/205 71/238/206 103/239/207 116/240/208
f 85/241/209 73/242/210 105/243/211 117/244/212
f 86/245/213 75/246/214 107/247/215 118/248/216
f 87/249/217 77/250/218 109/251/219 119/252/220
f 88/253/221 79/254/222 111/255/223 120/256/224
f 89/257/225 82/258/226 114/259/227 121/260/228
f 90/261/229 83/262/230 115/263/231 122/264/232
f 91/265/233 84/266/234 116/267/235 123/268/236
f 92/269/237 85/270/238 117/271/239 124/272/240
f 93/273/241 86/274/242 118/275/243 125/276/244
f 94/277/245 87/278/246 119/279/247 126/280/248
f 95/281/249 88/282/250 120/283/251 127/284/252
f 96/285/253 81/286/254 113/287/255 128/288/256
f 66/289/257 89/290/258 121/291/259 98/292/260
f 68/293/261 90/294/262 122/295/263 100/296/264
f 70/297/265 91/298/266 123/299/267 102/300/268
f 72/301/269 92/302/270 124/303/271 104/304/272
f 74/305/273 93/306/274 125/307/275 106/308/276
f 76/309/277 94/310/278 126/311/279 108/312/280
f 78/313/281 95/314/282 127/315/283 110/316/284
f 80/317/285 96/318/286 128/319/287 112/320/288
